<svg width="513" height="513" viewBox="0 0 513 513" fill="none" xmlns="http://www.w3.org/2000/svg">
<g clip-path="url(#clip0)">
<path d="M448.18 80H128.18C110.507 80 96.1802 94.327 96.1802 112C96.1802 129.673 110.507 144 128.18 144H448.18C465.853 144 480.18 129.673 480.18 112C480.18 94.327 465.853 80 448.18 80Z" fill="#DEA616"/>
<path d="M64.1802 112C64.1442 103.527 60.7492 95.414 54.7402 89.44C42.2592 77.033 22.1012 77.033 9.62023 89.44C3.61023 95.414 0.215227 103.527 0.180227 112C-0.0587734 114.073 -0.0587734 116.167 0.180227 118.24C0.542227 120.325 1.13223 122.364 1.94023 124.32C2.79923 126.215 3.81623 128.035 4.98023 129.76C6.12923 131.554 7.47023 133.217 8.98023 134.72C10.4362 136.17 12.0452 137.458 13.7802 138.56C15.4652 139.787 17.2922 140.808 19.2202 141.6C21.3412 142.7 23.6022 143.508 25.9402 144C28.0132 144.232 30.1072 144.232 32.1802 144C40.6302 144.007 48.7402 140.671 54.7402 134.72C56.2502 133.217 57.5912 131.554 58.7402 129.76C59.9042 128.035 60.9212 126.215 61.7802 124.32C62.8012 122.388 63.6062 120.349 64.1802 118.24C64.4192 116.167 64.4192 114.073 64.1802 112Z" fill="#DEA616"/>
<path d="M64.1802 256C64.4182 253.927 64.4182 251.833 64.1802 249.76C63.6272 247.695 62.8212 245.707 61.7802 243.84C60.9562 241.877 59.9372 240.001 58.7402 238.24C57.6312 236.466 56.2852 234.851 54.7402 233.44C42.2592 221.033 22.1012 221.033 9.62018 233.44C3.61018 239.414 0.215176 247.527 0.180176 256C0.242176 260.217 1.05518 264.388 2.58018 268.32C3.38218 270.213 4.34618 272.033 5.46018 273.76C6.67718 275.499 8.07118 277.108 9.62018 278.56C11.0342 280.102 12.6482 281.448 14.4202 282.56C16.1052 283.788 17.9312 284.809 19.8602 285.6C21.8112 286.421 23.8522 287.012 25.9402 287.36C27.9872 287.819 30.0822 288.034 32.1802 288C34.2532 288.239 36.3472 288.239 38.4202 288C40.4562 287.651 42.4442 287.06 44.3402 286.24C46.3212 285.454 48.2012 284.433 49.9402 283.2C51.7122 282.088 53.3262 280.742 54.7402 279.2C56.2822 277.786 57.6282 276.172 58.7402 274.4C59.9702 272.716 60.9912 270.89 61.7802 268.96C62.8732 266.836 63.6802 264.576 64.1802 262.24C64.4262 260.167 64.4262 258.073 64.1802 256Z" fill="#DEA616"/>
<path d="M64.1802 400C64.4172 397.927 64.4172 395.833 64.1802 393.76C63.6272 391.644 62.8212 389.603 61.7802 387.68C60.9212 385.785 59.9042 383.965 58.7402 382.24C57.6282 380.468 56.2822 378.854 54.7402 377.44C42.2592 365.033 22.1012 365.033 9.62018 377.44C8.07818 378.854 6.73218 380.468 5.62018 382.24C4.45618 383.965 3.43918 385.785 2.58018 387.68C1.75018 389.628 1.15918 391.67 0.820184 393.76C0.369184 395.809 0.155184 397.902 0.180184 400C0.216184 408.473 3.61118 416.586 9.62018 422.56C11.0342 424.102 12.6482 425.448 14.4202 426.56C16.1052 427.788 17.9312 428.809 19.8602 429.6C21.8112 430.421 23.8522 431.012 25.9402 431.36C27.9872 431.819 30.0822 432.034 32.1802 432C34.2532 432.239 36.3472 432.239 38.4202 432C40.4562 431.651 42.4442 431.06 44.3402 430.24C46.3212 429.454 48.2012 428.433 49.9402 427.2C51.7122 426.088 53.3262 424.742 54.7402 423.2C56.2822 421.786 57.6282 420.172 58.7402 418.4C59.9712 416.717 60.9922 414.89 61.7802 412.96C62.8722 410.835 63.6792 408.576 64.1802 406.24C64.4262 404.167 64.4262 402.073 64.1802 400Z" fill="#DEA616"/>
<path d="M480.18 224H128.18C110.507 224 96.1802 238.327 96.1802 256C96.1802 273.673 110.507 288 128.18 288H480.18C497.853 288 512.18 273.673 512.18 256C512.18 238.327 497.853 224 480.18 224Z" fill="#DEA616"/>
<path d="M336.18 368H128.18C110.507 368 96.1802 382.327 96.1802 400C96.1802 417.673 110.507 432 128.18 432H336.18C353.853 432 368.18 417.673 368.18 400C368.18 382.327 353.853 368 336.18 368Z" fill="#DEA616"/>
</g>
<defs>
<clipPath id="clip0">
<rect width="512.18" height="512.18" fill="white"/>
</clipPath>
</defs>
</svg>
